<svg xmlns="http://www.w3.org/2000/svg" viewBox="0 0 512 512" role="img" aria-label="Spark logo">
  <defs>
    <linearGradient id="sparkPin" x1="0%" y1="0%" x2="100%" y2="100%">
      <stop offset="0%" stop-color="#5a3ed6" />
      <stop offset="100%" stop-color="#2f2ea8" />
    </linearGradient>
    <linearGradient id="sparkCore" x1="0%" y1="0%" x2="100%" y2="100%">
      <stop offset="0%" stop-color="#5a3ed6" />
      <stop offset="50%" stop-color="#f4b142" />
      <stop offset="100%" stop-color="#e084c5" />
    </linearGradient>
  </defs>
  <circle cx="256" cy="434" r="96" fill="none" stroke="#68c8f7" stroke-width="18" opacity="0.75" />
  <circle cx="256" cy="434" r="60" fill="none" stroke="#68c8f7" stroke-width="12" opacity="0.75" />
  <path d="M256 68c-83 0-150 67-150 150 0 49 24 95 64 124l72 110c4 6 13 6 17 0l72-110c40-29 64-75 64-124 0-83-67-150-150-150z" fill="url(#sparkPin)" />
  <circle cx="256" cy="218" r="84" fill="white" />
  <circle cx="256" cy="218" r="66" fill="url(#sparkCore)" />
  <path d="M256 102l10 30h32l-26 19 10 30-26-19-26 19 10-30-26-19h32z" fill="#f4b142" />
  <path d="M220 240c16-8 28-24 30-46 4 28 14 42 36 54-30 0-48 9-62 26 2-13-4-22-4-34z" fill="#ffffff" opacity="0.7" />
</svg>
